<?xml version="1.0" encoding="utf-8"?>
<!-- Generator: Adobe Illustrator 21.0.0, SVG Export Plug-In . SVG Version: 6.00 Build 0)  -->
<svg version="1.1" id="Layer_1" xmlns="http://www.w3.org/2000/svg" xmlns:xlink="http://www.w3.org/1999/xlink" x="0px" y="0px"
	 viewBox="0 0 529.5 352.5" style="enable-background:new 0 0 529.5 352.5;" xml:space="preserve">
<style type="text/css">
	.st0{fill:#FEFEFE;}
	.st1{fill:#FEFDFD;}
	.st2{fill:#FEFEFD;}
	.st3{fill:#2E2E2E;}
	.st4{fill:#FDFDFD;}
	.st5{fill:#2F2F2F;}
	.st6{fill:#302F2E;}
	.st7{fill:#323232;}
	.st8{fill:#F9F9F9;}
	.st9{fill:#313131;}
	.st10{fill:#DE5731;}
</style>
<g>
	<path class="st0" d="M159.2,124.4c4.1-7.2,8.1-14.5,12.4-21.6c3.1-5.3,5.6-10.9,9-16c7-10.4,16.2-18.2,27.3-23.8
		c10.5-5.3,21.6-8.3,33.3-9.2c0.4,0,0.8,0,1.2,0c38.7,0,77.4,0,116.2,0c0.4,0,0.7,0,1.1,0c0.1,0.6-0.3,0.9-0.5,1.3
		c-15.7,27.3-31.5,54.5-47.2,81.8c-0.1,0.1-0.1,0.2-0.1,0.3c-0.2-0.4-0.4-0.8-0.6-1.1c-2.4-4.6-5.8-8.3-10.5-10.7
		c-1.1-0.6-2.2-0.9-3.4-0.9c-7.1,0.1-14.2,0-21.2,0c-19.9,0-39.8,0-59.6,0c-1,0-1.3,0.3-1.4,1.2c-0.7,4.8-1.5,9.7-2.2,14.5
		c-0.3,1.9-0.2,1.9,1.7,1.9c21.2,0,42.4,0,63.6,0c1.4,0,2.9,0.1,4.3,0.5c3.6,0.8,6.2,3.4,6.7,6.7c0.6,3.9-0.8,6.9-4.4,8.9
		c-3.5,2-7.4,2.8-11.4,2.8c-9.6,0.2-19.2,0.2-28.8,0.2c-11.4,0-22.7,0.1-34.1,0.1c-0.7,0-1.1,0.1-1.1,0.9c-0.2,1.5-0.5,3.1-0.7,4.6
		c-0.8,4.8-1.6,9.7-2.3,14.5c-0.8,5.3-1.6,10.7-2.5,16c-0.2,1,0.1,1,0.9,1c6.4,0,12.9-0.1,19.3,0c1.2,0,1.5-0.4,1.7-1.4
		c1.1-5.8,2.3-11.6,3.5-17.5c0.2-0.8,0.5-1.1,1.4-1.1c11,0,22,0,33,0c0.7,0,1.2,0.2,1.6,0.8c0.9,1.4,1.9,2.7,2.8,4
		c3.2,4.6,6.3,9.1,9.5,13.7c-1.7,3-3.4,6.1-5.2,9.1c-0.5,0-1,0-1.4,0c-52.2,0-104.5,0-156.7,0c-0.5,0-1,0-1.4,0
		c1.4-2.5,2.8-5.1,4.2-7.6c0.5,0,1,0,1.4,0c16.4,0,32.7,0,49.1,0c1.8,0,3.5-0.1,5.2-0.4c7.3-1.5,13.7-4.4,18.6-10.3
		c1.8-2.2,3.2-4.5,4.2-7.2c-0.3,0-0.5,0-0.7,0c-13.3-0.2-26.7,0.3-40-0.3c-1.7-0.1-3.4,0-5.2,0c-7.3,0-14.6,0-22,0
		c1.9-3.4,3.8-6.7,5.7-10.1c0.2-0.4,0.5-0.8,0.7-1.3c0.4,0,0.8-0.1,1.2-0.1c19.8,0,39.7,0,59.5,0c0.3,0,0.6,0,0.8,0
		c0.6,0,0.8-0.1,0.6-0.7c-1-3.5-2.7-6.6-5.5-8.9c-4.1-3.3-8.8-4.6-13.9-4.6c-10,0-20,0-30,0c-1.5,0-3,0-4.4-0.1
		c2.3-4,4.6-8.1,6.9-12.1c0.5,0,1,0,1.4,0c16.8,0,33.5,0,50.3,0c1.8,0,1.7,0,2-1.8c0.7-4.8,1.5-9.7,2.3-14.5
		c0.2-1.2-0.1-1.3-1.1-1.3c-14.4,0-28.8,0-43.2,0C160.1,124.5,159.7,124.4,159.2,124.4z"/>
	<path class="st0" d="M254,237.3c-2.6,4.5-5.3,9-7.9,13.6c-8.5,14.8-17.1,29.5-25.6,44.3c-0.4,0.7-0.9,0.9-1.7,0.9
		c-21.1-0.1-42.2-0.1-63.2-0.1c-7.1,0-14.2,0-21.4,0c-21.2-0.1-42.5-0.1-63.7-0.2c-3.1,0-6.2,0-9.3,0c-0.1-0.6,0.2-0.9,0.4-1.3
		c10.5-18.4,21.1-36.8,31.6-55.2c0.2-0.3,0.3-0.6,0.4-0.8c1.7,0,3.3,0,5,0c1.4,0,1-1.3,1.1-2c0.2-0.9-0.6-0.5-1-0.5
		c-0.7,0-1.1-0.1-0.9-1c0.7-2.6,1.4-5.3,2.1-7.9c0.1-0.1,0.3-0.2,0.3-0.3c3.7-6.4,7.4-12.9,11-19.3c0.4,0,0.8,0,1.2,0
		c52.4,0,104.8,0,157.2,0c0.4,0,0.8,0,1.2,0c-0.9,1.7-1.9,3.3-2.8,5c-2.6-1.5-5.9-1.1-8.2,1c-1.7,1.6-2.8,3.5-3.4,5.7
		c-1.2,4-2.2,8.2-3.1,12.3C253.1,233.5,253.1,235.4,254,237.3z M119.2,228.2c-0.1,0-0.1,0-0.2,0c0-0.2,0-0.4,0-0.6
		c0.2-4.8,0.5-9.7,0.7-14.5c0-0.7-0.2-1-0.9-0.9c-1.2,0.1-2.3,0.1-3.5,0c-1-0.1-1.3,0.3-1.5,1.2c-1.8,7.5-3.7,15-5.6,22.5
		c-0.2,0.8-0.9,1.9-0.4,2.4c0.4,0.4,1.7,0.1,2.5,0.2c0.6,0,0.9-0.1,1.1-0.8c1.2-4.9,2.4-9.7,3.6-14.5c0.4-1.5,0.7-3,1.1-4.6
		c0.4,0.5,0.2,0.8,0.2,1.1c-0.4,6-0.8,12-1.1,17.9c0,0.3-0.2,0.7,0.1,0.8c0.8,0.1,1.6,0.1,2.4,0.1c0.6,0,0.6-0.6,0.7-1
		c2.4-5.6,4.8-11.2,7.2-16.8c0.2-0.4,0.2-0.9,0.8-1.1c-1.6,6.3-3.1,12.5-4.7,18.9c1,0,2,0,2.9,0c0.6,0,0.8-0.2,1-0.8
		c0.4-1.8,0.8-3.5,1.3-5.2c1.6-6.4,3.2-12.9,4.8-19.3c0.2-0.8,0.1-1.1-0.8-1c-1.2,0.1-2.5,0.1-3.7,0c-0.7,0-1,0.2-1.3,0.8
		c-0.9,2.1-1.9,4.1-2.8,6.2C121.9,222.2,120.5,225.2,119.2,228.2z M241.6,227c-0.2-0.5-0.3-0.6-0.3-0.8c-0.5-3.7-1-7.4-1.5-11
		c-0.4-3-0.4-3-3.4-3c-0.8,0-1.1,0.3-1.3,1c-1,4.3-2.1,8.7-3.2,13c-1,4.1-2,8.1-3.1,12.3c1.1,0,2,0,3,0c0.7,0,0.9-0.2,1.1-0.9
		c1-4.2,2-8.4,3.1-12.7c0.2-1,0.3-2,0.8-3.1c0.3,5,1.2,9.7,1.9,14.5c0.3,2.1,0.3,2,2.5,2.1c1,0,1.3-0.3,1.5-1.3
		c1.8-7.5,3.7-14.9,5.6-22.4c0.7-2.7,0.7-2.6-2.1-2.7c-0.9,0-1.2,0.3-1.4,1.1C243.8,217.7,242.6,222.2,241.6,227z M147.2,238.5
		c1.2,0,2.2,0,3.2,0c0.7,0,1-0.1,1.2-0.9c0.7-3,1.5-6,2.2-9.1c0.1-0.5,0.3-0.8,0.9-0.8c0.7,0,0.6,0.5,0.6,0.9
		c0.2,2.9,0.5,5.9,0.7,8.8c0.1,0.8,0.2,1.2,1.1,1.1c0.9-0.1,1.8-0.1,2.8,0c0.7,0,0.8-0.2,0.7-0.8c-0.3-2.8-0.5-5.6-0.9-8.3
		c-0.2-1.6-0.3-2.8,1.5-3.5c0.5-0.2,0.9-0.7,1.3-1.2c2-2.5,2.8-5.5,2.6-8.6c-0.1-2.2-1.4-3.4-3.7-3.7c-2.4-0.3-4.8,0-7.2-0.1
		c-0.6,0-0.7,0.3-0.8,0.8c-0.4,1.7-0.8,3.3-1.3,5C150.6,224.7,149,231.5,147.2,238.5z M167.8,238.5c0.8,0,1.5-0.1,2.1,0
		c1.6,0.3,2.4-0.3,2.8-1.9c0.3-1.1,0.7-2.6,1.5-3.2c0.9-0.7,2.4-0.2,3.6-0.2c2,0,2,0,1.8,2c-0.3,3.3-0.3,3.3,3,3.2
		c0.7,0,0.9-0.2,0.9-0.9c0.1-3,0.2-6.1,0.4-9.1c0.2-5.1,0.4-10.3,0.7-15.4c0-0.6-0.2-0.8-0.8-0.8c-1.1,0-2.2,0.1-3.4,0
		c-0.7,0-1,0.2-1.2,0.8c-1.1,2.4-2.2,4.8-3.2,7.2C173.3,226.2,170.6,232.3,167.8,238.5z M206.5,220.6c0.3,0,0.6,0,0.8,0
		c1.1,0.2,1.4-0.3,1.6-1.3c0.2-1.2,0.3-2.4,0.2-3.6c-0.1-2.5-1.6-4-4.1-4.1c-0.9,0-1.8,0.1-2.6,0.4c-3.3,1.1-4.9,3.8-6,6.8
		c-1.1,3.1-1.7,6.4-2.5,9.6c-0.5,2.1-1,4.2-0.9,6.4c0.2,2.7,1.9,4.3,4.5,4.4c1.7,0,3.2-0.5,4.6-1.5c2.5-2,3.5-4.8,4.3-7.7
		c0.1-0.4,0-0.5-0.4-0.5c-1.2,0-2.4-0.2-3.5,0.1c-0.8,0.2-0.6,1.5-1,2.2c-0.2,0.3-0.3,0.6-0.4,0.9c-0.1,0.2-0.2,0.3-0.3,0.5
		c-0.6,0.9-1.5,1.4-2.6,0.9c-1-0.4-1-1.4-0.8-2.3c1-4.2,2-8.4,3.1-12.7c0.2-0.7,0.5-1.4,1.1-1.8c0.7-0.6,1.4-1.2,2.4-0.7
		c0.9,0.4,0.8,1.3,0.8,2.1C204.6,220.6,204.6,220.6,206.5,220.6z M218.2,214.5c0.2,0,0.5,0.1,0.7,0.1c1.1-0.1,1.4,0.1,1.1,1.3
		c-1.7,6.4-3.2,12.8-4.8,19.3c-0.2,0.7-0.3,1.1-1.1,1c-1-0.2-1.6,0.1-1.6,1.3c0,0.3-0.1,0.7-0.2,1.1c2.7,0,5.4,0,8,0
		c0.4,0,0.7-0.1,0.7-0.6c0.1-0.6,0.4-1.2,0.3-1.8c-0.2,0-0.4,0-0.6,0c-1.4,0-1.4,0-1.1-1.4c1.5-6,3-12,4.5-18
		c0.3-1.3,0.4-2.4,2.3-2.2c1,0.1,0.7-1.2,0.9-1.8c0.2-0.7-0.6-0.4-0.9-0.4c-1.8,0-3.7,0-5.5,0C218.5,212.2,218.5,212.2,218.2,214.5z
		"/>
	<path class="st1" d="M357.2,220.7c-1.8,2.6-3.2,5.4-4.8,8.1c-6,10.4-11.9,20.9-18,31.3c-9.9,17-24.6,27.9-43.2,33.5
		c-7,2.1-14.1,3.2-21.4,3.1c-7.6-0.1-15.3,0-22.9,0c-1,0-1.2-0.1-0.6-1.1c15-26,30-52,44.9-78c0.1-0.2,0.2-0.3,0.3-0.5
		c0.1,0.1,0.2,0.2,0.3,0.2c-1.5,3.9-2.2,8.1-3.3,12.1c-0.4,1.7-0.8,3.4-0.7,5.1c0.2,2.9,1.9,4.5,4.8,4.5c1.7,0,3.1-0.5,4.4-1.6
		c2.1-1.7,3.1-4,3.9-6.5c0.5-1.7,0.5-1.7-1.2-1.7c-0.6,0-1.1,0.1-1.7,0c-0.7-0.1-1,0.2-1.1,0.9c-0.3,1.1-0.7,2.2-1.5,3.1
		c-0.7,0.7-1.5,1-2.4,0.6c-0.8-0.4-0.9-1.2-0.8-2c0.1-0.9,0.3-1.8,0.5-2.7c0.8-3.2,1.6-6.4,2.4-9.6c0.3-1.3,0.9-2.5,2.2-3.1
		c1.2-0.5,2.1,0,2.1,1.3c0,0.6,0,1.3-0.2,1.9c-0.1,0.5,0,0.7,0.5,0.7c4.2-0.2,3.4,1,4-3.3c0-0.2,0.1-0.4,0.1-0.6
		c0.2-3.6-2.1-5.6-5.7-5c-2.4,0.4-4.1,1.8-5.4,3.6c-0.1-0.1-0.2-0.1-0.3-0.2c1.4-2.5,2.8-5,4.2-7.5c0.3,0,0.6,0,1,0
		c21.9,0,43.8,0,65.7,0c0.3,0,0.6,0,1,0c-0.8,1.5-1.7,3-2.5,4.5c-0.4,0-0.8,0.1-1.2,0.1c-1.1-0.2-1.5,0.3-1.8,1.3
		c-0.5,2.3-1.1,4.5-1.7,6.7C357.3,220.4,357.2,220.5,357.2,220.7L357.2,220.7z M330.6,238.5c1.2,0,2.2,0,3.3,0
		c0.7,0,0.9-0.2,1.1-0.9c0.7-3.1,1.5-6.1,2.3-9.2c0.1-0.6,0.4-0.7,1-0.7c0.7,0,0.5,0.5,0.6,0.8c0.2,2.2,0.3,4.5,0.6,6.7
		c0.1,1.1-0.3,2.6,0.4,3.1c0.8,0.5,2.2,0.1,3.3,0.2c0.8,0.1,1.1-0.1,1-1c-0.4-3.2-0.7-6.4-1-9.7c0-0.4-0.2-0.9,0.4-1.2
		c4.2-2.2,5.1-6.1,5.2-10.3c0.1-2.4-1.3-3.8-3.7-4c-1.6-0.1-3.2-0.1-4.8-0.1c-2.9,0-3,0-3.7,2.8
		C334.5,222.8,332.6,230.5,330.6,238.5z M326.2,215.3c0-2.2-2.2-4.1-6-3.5c-1.7,0.2-3,1.1-4.1,2.3c-1.1,1.2-2,2.6-2.5,4.2
		c-1.6,5.1-3.1,10.2-3.6,15.5c-0.4,4,2.3,6.2,6.1,5.3c2.8-0.6,4.5-2.6,5.8-5c1.2-2.3,1.7-4.7,2.3-7.2
		C325,223.6,326,220.4,326.2,215.3z"/>
	<path class="st2" d="M343.5,127.2c-0.1-0.5,0.2-0.8,0.5-1.2c13.6-23.6,27.2-47.2,40.8-70.8c0.5-0.9,1.1-1.3,2.1-1.3
		c21.5,0,43,0,64.5,0c1.5,0,1.5,0,0.8,1.4c-13,22.6-26,45.3-39.1,67.9c-0.2,0.4-0.4,0.8-0.6,1.2c-0.5,0-1,0-1.4,0
		c-20.5,0-41.1,0-61.6,0c-0.4,0-0.9-0.2-1.3,0.1C346.8,125.7,345.1,126.3,343.5,127.2z"/>
	<path class="st3" d="M277.3,196.7c-3.2-4.6-6.3-9.1-9.5-13.7c-0.9-1.3-1.9-2.7-2.8-4c-0.4-0.6-0.9-0.8-1.6-0.8c-11,0-22,0-33,0
		c-0.9,0-1.2,0.3-1.4,1.1c-1.1,5.8-2.3,11.6-3.5,17.5c-0.2,1.1-0.5,1.4-1.7,1.4c-6.4-0.1-12.9,0-19.3,0c-0.8,0-1.1,0-0.9-1
		c0.9-5.3,1.7-10.7,2.5-16c0.8-4.8,1.5-9.7,2.3-14.5c0.2-1.5,0.5-3.1,0.7-4.6c0.1-0.8,0.5-0.9,1.1-0.9c11.4,0,22.7,0,34.1-0.1
		c9.6,0,19.2-0.1,28.8-0.2c4-0.1,7.8-0.8,11.4-2.8c3.6-2,5-5,4.4-8.9c-0.5-3.2-3.1-5.9-6.7-6.7c-1.4-0.3-2.8-0.5-4.3-0.5
		c-21.2,0-42.4,0-63.6,0c-1.9,0-2,0-1.7-1.9c0.7-4.8,1.5-9.7,2.2-14.5c0.1-0.9,0.4-1.2,1.4-1.2c19.9,0,39.8,0,59.6,0
		c7.1,0,14.2,0,21.2,0c1.3,0,2.3,0.3,3.4,0.9c4.7,2.4,8.1,6.1,10.5,10.7c0.2,0.4,0.4,0.8,0.6,1.1c0.5,1.4,1,2.8,1.5,4.2
		c0.9,2.5,0.9,5.1,0.5,7.7c-1.9,11.7-8.4,19.5-19.4,23.7c-1.1,0.4-2.3,0.8-3.4,1.1c-1.3,0.4-1.5,0.8-0.6,1.9
		c3.4,4.1,6.8,8.3,10.2,12.4c1.5,1.8,3,3.6,4.5,5.4c1.2,1.5,2.3,3,3.6,4.6c-2.3,0-4.3,0-6.3,0c-7.3,0-14.6-0.1-21.9,0
		C279.1,198.2,278,198,277.3,196.7z"/>
	<path class="st3" d="M159.2,124.4c0.5,0,1,0,1.4,0c14.4,0,28.8,0,43.2,0c1,0,1.3,0.1,1.1,1.3c-0.8,4.8-1.6,9.6-2.3,14.5
		c-0.3,1.7-0.2,1.8-2,1.8c-16.8,0-33.5,0-50.3,0c-0.5,0-1,0-1.4,0c-5.4,0-10.9,0-16.3,0c-2.2,0-4.4,0.5-6.3,1.5
		c-3.3,1.7-4.2,4.3-2.5,7.7c0.4,0.7,0.6,1.6,1.5,1.9c1.3,0.5,2.6,1,3.9,1c4.3,0.1,8.5,0,12.8,0c1.5,0,3,0.1,4.4,0.1
		c10,0,20-0.1,30,0c5.1,0,9.9,1.3,13.9,4.6c2.9,2.3,4.5,5.4,5.5,8.9c0.2,0.7-0.1,0.8-0.6,0.7c-0.3,0-0.6,0-0.8,0
		c-19.8,0-39.7,0-59.5,0c-0.4,0-0.8,0-1.2,0.1c-4.4,0-8.8,0-13.2-0.1c-4.5-0.1-8.9-1.1-12.8-3.6c-4.6-3-7.1-7.3-7.6-12.8
		c-0.4-4.3-0.1-8.5,1.6-12.4c2.8-6.5,8-10.5,14.4-13c3.8-1.5,7.8-2.3,11.9-2.2c9.8,0.1,19.7,0,29.5,0
		C158.2,124.5,158.7,124.4,159.2,124.4z"/>
	<path class="st4" d="M302.4,198.2c2,0,4.1,0,6.3,0c-1.3-1.6-2.5-3.1-3.6-4.6c4.8-8.3,9.6-16.7,14.4-25c0.1-0.2,0.2-0.4,0.3-0.6
		c0.4,0,0.9,0,1.3,0c6.9,0,13.8,0,20.6,0c1.4,0,1.4,0,1.1-1.4c-0.5-2.1-0.6-4.2-0.3-6.3c0.7-4.5,3-8,6.4-10.9
		c4.4-3.6,9.3-6.3,15-6.5c12.6-0.3,25.3-0.1,37.9-0.1c-2.6,4.6-5.1,9.1-7.9,13.6c0.1-0.9,0.2-1.8,0.2-2.7c0-0.4,0.5-1.1-0.3-1.1
		c-0.7,0-1.6-0.5-2,0.7c-0.1,0.5-0.3,0.9-0.5,1.3c-1.1,2.5-2.1,5-3.2,7.6c0.1-2.9,0.3-5.8,0.6-8.7c0.1-0.5,0.1-1-0.6-0.9
		c-0.6,0.1-1.5-0.6-1.6,0.8c-0.3,4.3-0.6,8.5-0.9,12.8c-0.1,1.9-0.1,1.9,1.8,1.9c-2,3.6-4.1,7.2-6.1,10.8c-0.3,0.5-0.6,1-0.9,1.6
		c-0.5,0-1,0-1.4,0c-17.9,0-35.8,0-53.7,0c-0.5,0-0.9,0-1.6,0c0.3,0.6,0.6,1,0.8,1.4c4.2,6.8,10.3,11.4,17.7,14.4
		c3.3,1.3,6.6,2.1,10.2,2c5.9-0.2,11.7,0,17.6,0c-1.4,2.5-2.8,5.1-4.2,7.6c-0.4,0-0.7,0-1.1,0c-21.9,0-43.7,0-65.6,0
		c-0.3,0-0.6,0-1,0C299.5,203.3,301,200.7,302.4,198.2z M360.9,159c-0.1-0.1-0.2-0.2-0.3-0.3c0.4-1.5,0.7-2.9,1.1-4.4
		c0.5-1.9,0.5-1.8-1.4-1.8c-0.6,0-0.7,0.3-0.9,0.7c-0.1,0.6-0.3,1.2-0.5,1.9c-1.1,4.2-2.1,8.5-3.2,12.7c2.5,0.3,2.5,0.3,3-1.9
		c0.4-1.8,0.9-3.6,1.3-5.4c0.6,1.8,1,3.6,1.4,5.4c0.4,2,0.4,2,2.5,2c0.9,0,0.9-0.3,0.7-1c-0.5-2-0.8-4-1.4-5.9
		c-0.2-0.9-0.1-1.6,0.5-2.4c1.5-2,2.9-4,4.3-6c-1.8-0.4-3-0.1-3.9,1.5C363.3,155.9,362.1,157.4,360.9,159z M374.6,152.6
		c-0.2,0.1-0.9-0.5-1.2,0.5c-0.9,3.8-2.1,7.6-2.7,11.5c-0.5,2.7,1.5,4.4,4.2,3.7c2.2-0.6,3.3-2.2,3.8-4.2c1-3.6,1.9-7.3,2.8-10.9
		c0-0.2,0.3-0.4,0-0.6c-0.8-0.5-2.3,0.1-2.5,1c-0.8,3-1.5,6-2.3,9c-0.2,0.9-0.5,1.7-1,2.4c-0.4,0.5-1,0.7-1.6,0.5
		c-0.6-0.2-0.6-0.8-0.6-1.3c0-0.5,0.1-0.9,0.3-1.4c0.7-3,1.4-6,2.2-8.9C376.2,152.7,376,152.3,374.6,152.6z"/>
	<path class="st3" d="M401.8,142.8c-12.6,0-25.3-0.2-37.9,0.1c-5.7,0.1-10.7,2.8-15,6.5c-3.4,2.9-5.8,6.4-6.4,10.9
		c-0.3,2.1-0.2,4.2,0.3,6.3c0.3,1.4,0.3,1.4-1.1,1.4c-6.9,0-13.8,0-20.6,0c-0.4,0-0.9,0-1.3,0c-0.6-0.2-0.4-0.8-0.5-1.2
		c-0.9-6.2,0.7-12,3.3-17.5c1.1-2.3,2.6-4.3,3.9-6.4c4.3-6.8,10.4-11.4,17.1-15.6c1.5-0.9,3.2-1.5,4.6-2.6c0.4-0.3,0.8-0.1,1.3-0.1
		c20.5,0,41.1,0,61.6,0c0.5,0,1,0,1.4,0c3.9,0,7.7,0,11.6,0c0,0.5-0.3,0.7-0.6,1c-5.3,5.5-10.6,11.1-15.9,16.6
		c-0.5,0.6-1.1,0.9-1.9,0.8C404.5,142.8,403.1,142.8,401.8,142.8z"/>
	<path class="st3" d="M127.4,179.8c7.3,0,14.6,0,22,0c1.7,0,3.4-0.1,5.2,0c13.3,0.6,26.7,0.1,40,0.3c0.2,0,0.4,0,0.7,0
		c-0.9,2.7-2.4,5.1-4.2,7.2c-4.8,5.8-11.3,8.8-18.6,10.3c-1.7,0.4-3.5,0.4-5.2,0.4c-16.4,0-32.7,0-49.1,0c-0.5,0-1,0-1.4,0
		c-8.9,0-17.8,0-26.7,0c-0.4,0-0.9,0.1-1.3-0.1c0.1-0.5,0.5-0.7,0.7-0.9c5.5-5.5,11.1-10.9,16.6-16.4c0.6-0.6,1.2-0.8,2-0.8
		C114.6,179.9,121,179.9,127.4,179.8z"/>
	<path class="st3" d="M370,198.2c-5.9,0-11.8-0.2-17.6,0c-3.6,0.1-6.9-0.6-10.2-2c-7.4-3-13.4-7.6-17.7-14.4
		c-0.2-0.4-0.5-0.8-0.8-1.4c0.6,0,1.1,0,1.6,0c17.9,0,35.8,0,53.7,0c0.5,0,1,0,1.4,0c6.7,0,13.4,0,20,0c4.1,0,8.2,0,12.4,0
		c0.4,0,0.9-0.1,1.3,0.1c0,0.5-0.4,0.7-0.7,0.9c-5.5,5.3-11.1,10.6-16.6,15.9c-0.6,0.6-1.2,0.8-2,0.8
		C386.4,198.2,378.2,198.2,370,198.2z"/>
	<path class="st5" d="M298.1,205.8c0.3,0,0.6,0,1,0c21.9,0,43.7,0,65.6,0c0.4,0,0.7,0,1.1,0c0.6,0,1.2,0,1.8,0c13.7,0,27.4,0,41,0
		c0.6,0,1.3-0.2,1.2,0.9c0,0.5-0.2,0.8-0.8,0.8c-0.3,0-0.6,0-1,0c-14,0-27.9,0-41.9,0c-0.5,0-1,0-1.6,0c-0.3,0-0.6,0-1,0
		c-21.9,0-43.8,0-65.7,0c-0.3,0-0.6,0-1,0c-8.6,0-17.3,0-25.9,0c-0.4,0-0.8,0-1.2,0c-52.4,0-104.8,0-157.2,0c-0.4,0-0.8,0-1.2,0
		c-7.3,0-14.6,0-21.9,0c-4.3,0-8.6,0-12.8,0c-0.6,0-1.3,0.2-1.3-0.9c0-1.1,0.8-0.8,1.3-0.8c11.5,0,23.1,0,34.6,0c0.4,0,0.8,0,1.2,0
		c0.5,0,1,0,1.4,0c52.2,0,104.5,0,156.7,0c0.5,0,1,0,1.4,0C280.8,205.8,289.5,205.8,298.1,205.8z"/>
	<path class="st6" d="M357.4,220.2c0.6-2.2,1.2-4.5,1.7-6.7c0.2-1,0.7-1.5,1.8-1.3c0.4,0.1,0.8-0.1,1.2-0.1c1.1-0.1,1.5,0.4,1.7,1.5
		c0.5,4.4,1.2,8.7,2,13.1c0.5-2.2,1-4.4,1.6-6.6c0.6-2.3,1.2-4.6,1.7-6.9c0.2-0.8,0.6-1.1,1.4-1.1c2.8,0,2.8,0,2.1,2.6
		c-1.9,7.5-3.8,15-5.6,22.6c-0.2,0.9-0.5,1.2-1.4,1.2c-2.3-0.1-2.4,0-2.6-2.3c-0.6-4.8-1.5-9.5-1.9-14.3c-0.6,2.4-1.2,4.8-1.7,7.2
		c-0.7,2.8-1.4,5.5-2,8.3c-0.2,0.8-0.5,1.2-1.4,1c-0.3,0-0.6,0-0.8,0c-2.2,0-2,0.2-1.4-1.9c1.2-4.9,2.4-9.8,3.7-14.6
		c0.1-0.4,0.2-0.8,0.1-1.2c0,0,0,0,0,0C357.5,220.7,357.4,220.4,357.4,220.2z"/>
	<path class="st6" d="M408.7,212.2c1.4,0,2.8-0.1,4.2,0.2c2.2,0.3,3.6,1.7,3.5,3.9c-0.1,4.3-1.1,8.2-5.3,10.4
		c-0.5,0.3-0.4,0.6-0.4,1c0.3,3.3,0.7,6.6,1,9.9c0.1,0.8-0.1,1-0.8,1c-0.5,0-1,0-1.6,0c-2.1,0-2.1,0-2.3-2.2
		c-0.2-2.4-0.3-4.9-0.6-7.3c0-0.5,0.2-1.2-0.7-1.3c-0.8-0.1-0.8,0.6-1,1.1c-0.7,2.9-1.5,5.7-2.1,8.6c-0.2,0.8-0.5,1.1-1.4,1.1
		c-3.1,0-3.1,0-2.4-2.9c1.8-7.4,3.7-14.7,5.5-22.1c0.2-1,0.6-1.4,1.7-1.3C407,212.2,407.9,212.2,408.7,212.2z M407.4,223.6
		c2.6-0.1,3.6-1,4.3-3.6c0.7-2.9,0.2-3.7-2.8-3.6c-0.7,0-1,0.2-1.1,0.9c-0.4,1.7-0.8,3.4-1.3,5.1
		C406.2,223.4,406.4,223.8,407.4,223.6z"/>
	<path class="st5" d="M254,237.3c-0.9-1.9-0.8-3.9-0.4-5.9c0.9-4.1,1.9-8.2,3.1-12.3c0.6-2.2,1.7-4.1,3.4-5.7c2.3-2.1,5.6-2.5,8.2-1
		c1.9,1.9,1.8,4.3,1.3,6.7c0,0,0,0.1,0,0.1c-0.1,0.5-0.5,0.5-0.9,0.4c-1.1-0.1-2.3,0.4-3.2-0.3c-0.4-0.2,0.3-1.2-0.1-1.8
		c-0.1-1.2-0.9-1.4-1.9-1.3c-0.9,0.1-1.5,0.8-2,1.6c-0.6,1-0.8,2.1-1.1,3.2c-0.6,2.6-1.5,5.2-1.8,7.9c0,0,0,0,0,0
		c-0.3,0-0.2,0.3-0.2,0.4c-0.3,0.9-0.4,1.9-0.4,2.8c0,0.7,0.1,1.4,0.8,1.7c0.7,0.3,1.5,0.2,2.2-0.3c1.4-1.1,1.6-2.7,1.9-4.3
		c0.1-0.6-0.7-0.4-1-0.4c-0.8,0.1-1-0.2-0.8-1c0.8-3.5,0.8-3.5,4.4-3.5c2.9,0,2.9,0,2.2,2.7c-0.8,3.3-1.6,6.6-2.5,9.9
		c-0.2,0.7-0.1,1.6-1.3,1.5c-1.3,0-0.9-1-1.2-1.8c-1.2,1.3-2.6,2.1-4.3,2.2C256.5,239.3,255.1,238.8,254,237.3z"/>
	<path class="st6" d="M383,238.5c-1.9,0-3.8,0-5.6,0c-0.8,0-1.1-0.1-0.8-1c2.1-8.1,4.1-16.3,6.1-24.4c0.2-0.8,0.5-0.9,1.2-0.9
		c3.5,0,7,0,10.5,0c0.9,0,1.2,0.2,0.9,1.1c-0.4,1.2-0.2,2.8-1.1,3.6c-0.9,0.8-2.5,0.2-3.7,0.2c-1.2,0-2.5,0-3.7,0
		c-0.6,0-1,0.1-1.1,0.8c-0.3,1.3-0.6,2.6-1,3.8c-0.2,0.7,0.1,0.9,0.8,0.9c1.3,0,2.6,0,3.8,0c0.8,0,1.1,0.2,0.8,1c0,0,0,0.1,0,0.1
		c-0.3,1.2-0.3,2.7-1.1,3.5c-0.8,0.8-2.4,0.2-3.6,0.2c-2.1,0-2.1,0-2.6,2c-0.3,1-0.5,2.1-0.8,3.1c-0.2,0.8,0,1,0.8,1
		c2.3,0,4.6,0,7,0c0.8,0,1.1,0.2,0.8,1c-0.3,1-0.6,2.1-0.8,3.1c-0.1,0.7-0.4,0.9-1.1,0.9C386.7,238.4,384.9,238.5,383,238.5z"/>
	<path class="st6" d="M85.2,219.3c-0.2-0.5-0.3-0.9-0.4-1.2c-0.9-2-3-2.2-4.3-0.5c-1.2,1.7-0.9,3.4,0.9,4.4c0.4,0.2,0.7,0.5,1.1,0.7
		c3,1.4,4.1,3.8,3.6,7c-0.5,3.2-1.7,6-4.3,8c-1.7,1.4-3.7,1.8-5.9,1.5c-2.2-0.3-4-2.6-4-4.9c0-0.2,0-0.4,0.1-0.5
		c1.1-0.9,2.3-1.8,3.4-2.6c0.2-0.2,0.4-0.1,0.5,0.2c0.1,0.2,0,0.4,0.1,0.6c0.4,1.6,1.2,2.4,2.4,2.5c1.3,0.1,2.6-0.8,3.1-2.3
		c0.6-1.6,0.4-2.5-0.8-3.4c-0.9-0.6-1.8-1.2-2.7-1.8c-1.3-1-2.4-2.3-2.4-4c-0.2-3.8,0.9-7.2,3.9-9.7c1.1-0.9,2.4-1.4,3.8-1.5
		c2.7-0.3,5.1,1.5,5.5,4.2c0.1,0.3,0,0.6-0.3,0.8C87.4,217.6,86.3,218.4,85.2,219.3z"/>
	<path class="st6" d="M100.1,227.1c-0.7,2.6-1.3,5.3-2.1,7.9c-0.2,0.9,0.1,1,0.9,1c0.3,0,1.2-0.4,1,0.5c-0.2,0.7,0.3,1.9-1.1,2
		c-1.7,0-3.3,0-5,0c-0.4,0-0.8,0-1.2,0c-1.8,0-1.8,0-1.3-1.7c0.2-0.8,0.8-0.7,1.3-0.6c0.9,0.1,1.2-0.3,1.4-1.1
		c1.6-6.5,3.2-12.9,4.8-19.4c0.2-0.7,0.2-1.2-0.8-1.1c-0.3,0-1.1,0.3-1-0.4c0.1-0.7-0.1-1.9,1-1.9c2.5-0.1,5,0,7.4,0
		c0.2,0,0.5,0,0.5,0.3c0.2,0.9-0.6,2-1.5,2c-0.9-0.1-1.3,0.3-1.5,1.1C102,219.5,101,223.3,100.1,227.1z"/>
	<path class="st7" d="M387.3,168c-1.9,0-1.9,0-1.8-1.9c0.3-4.3,0.7-8.5,0.9-12.8c0.1-1.3,1-0.6,1.6-0.8c0.7-0.2,0.7,0.3,0.6,0.9
		c-0.3,2.9-0.5,5.8-0.6,8.7c1.1-2.5,2.1-5,3.2-7.6c0.2-0.4,0.4-0.9,0.5-1.3c0.4-1.2,1.3-0.7,2-0.7c0.8,0,0.3,0.8,0.3,1.1
		c0,0.9-0.1,1.8-0.2,2.7c-0.2,1.9-0.4,3.7-0.5,5.6c0.1,0,0.1,0,0.2,0.1c0.5-1.2,1-2.4,1.5-3.6c0.7-1.7,1.4-3.5,2.1-5.2
		c0.3-0.6,1.7-1.1,2.2-0.7c0.4,0.3,0,0.7-0.1,0.9c-1.5,3.6-3,7.1-4.5,10.7c-0.4,1-0.8,2-1.2,3c-0.2,0.4-0.4,0.7-0.9,0.7
		c-1.6,0.1-1.7,0-1.5-1.6c0.2-1.8,0.2-3.6,0.3-5.4c0.2-0.8,0.3-1.7,0.1-2.5c-0.9,2.3-2.1,4.4-2.8,6.8c0,0,0,0,0,0c0,0,0,0,0,0
		C388.2,166.1,388.2,167.3,387.3,168z"/>
	<path class="st6" d="M399.2,167.8c1.1-2.5,2.2-5,3.4-7.5c1-2.3,2-4.5,3.1-6.8c0.4-0.8,2.5-1.4,3.2-0.9c0.3,0.2,0.2,0.5,0.2,0.8
		c-0.2,4.6-0.4,9.2-0.5,13.8c-0.1,1.3-1.1,0.7-1.7,0.8c-0.8,0.1-0.7-0.4-0.7-1c0.1-2.3,0.3-1.9-1.9-2c-1.1-0.1-1.6,0.3-1.9,1.3
		C401.6,168.2,401.5,168.2,399.2,167.8z M406.9,156c-0.1,0-0.1,0-0.2-0.1c-0.7,1.7-1.5,3.5-2.2,5.2c-0.1,0.3-0.6,0.9,0.1,1
		c0.6,0,1.6,0.6,1.8-0.5C406.7,159.8,406.7,157.9,406.9,156z"/>
	<path class="st6" d="M429,152.5c1.1,0,2.2,0,3.4,0c0.6,0,0.8,0.3,0.6,0.8c-0.1,0.3-0.2,0.6-0.2,0.9c-0.1,0.9-0.6,1.3-1.5,1.2
		c-1.1-0.2-1.6,0.3-1.9,1.4c-0.7,3.3-1.6,6.7-2.5,10c-0.2,1-1.7,1.6-2.5,1.1c-0.5-0.3-0.2-0.7-0.1-1.1c0.8-3.3,1.6-6.5,2.4-9.8
		c0.4-1.6,0.4-1.7-1.3-1.7c-0.8,0-1.2-0.1-0.9-1.1c0.5-1.8,0.4-1.8,2.3-1.8C427.6,152.5,428.3,152.5,429,152.5z"/>
	<path class="st6" d="M414.7,167.9c-0.6,0-1.1,0-1.7,0c-0.3,0-0.8,0.2-0.8-0.4c0.1-0.4,0-1,0.6-1c0.9,0.1,1-0.5,1.2-1.2
		c0.8-3.4,1.7-6.7,2.5-10.1c0.1-0.6,0.6-1.3-0.6-1.4c-0.3,0-0.3-0.3-0.2-0.6c0.1-0.3,0.1-0.7,0.6-0.7c1.4,0,2.7,0,4.1,0
		c0.3,0,0.6,0.1,0.5,0.5c-0.1,0.4-0.1,0.9-0.6,0.9c-0.9-0.1-1,0.6-1.2,1.2c-0.9,3.4-1.7,6.9-2.6,10.3c-0.1,0.6-0.4,1.1,0.6,1.1
		c0.4,0,0.3,0.3,0.3,0.6c-0.1,0.4-0.1,0.8-0.7,0.8C416.1,167.9,415.4,167.9,414.7,167.9C414.7,167.9,414.7,167.9,414.7,167.9z"/>
	<path class="st8" d="M258.5,229.1c0.4-2.7,1.2-5.3,1.8-7.9c0.2-1.1,0.5-2.2,1.1-3.2c0.4-0.8,1-1.5,2-1.6c0.9-0.1,1.8,0,1.9,1.3
		c-2,3.4-4,6.8-6,10.2C259.1,228.4,258.8,228.7,258.5,229.1z"/>
	<path class="st8" d="M388.9,165.3c0.7-2.4,1.9-4.5,2.8-6.8c0.2,0.9,0,1.7-0.1,2.5C390.6,162.4,389.7,163.9,388.9,165.3z"/>
	<path class="st1" d="M292.1,216.3c0.1-0.3,0.3-0.5,0.4-0.8c0.1,0.1,0.1,0.1,0.2,0.2c-0.1,0.3-0.3,0.5-0.4,0.8
		C292.2,216.4,292.1,216.4,292.1,216.3z"/>
	<path class="st1" d="M292.5,215.5c0.1-0.1,0.2-0.3,0.3-0.4c0.1,0.1,0.2,0.1,0.3,0.2c-0.1,0.1-0.2,0.3-0.3,0.4
		C292.6,215.7,292.5,215.6,292.5,215.5z"/>
	<path class="st1" d="M291.8,216.8c0.1-0.2,0.2-0.3,0.3-0.5c0.1,0.1,0.1,0.1,0.2,0.2c-0.1,0.2-0.2,0.3-0.2,0.5
		C291.9,216.9,291.9,216.8,291.8,216.8z"/>
	<path class="st1" d="M291.5,217.2c0.1-0.1,0.2-0.3,0.2-0.4c0.1,0.1,0.2,0.1,0.3,0.2c-0.1,0.2-0.2,0.3-0.2,0.5
		C291.7,217.4,291.6,217.3,291.5,217.2z"/>
	<path class="st8" d="M258.4,229.5c0-0.1-0.1-0.4,0.2-0.4C258.5,229.2,258.4,229.4,258.4,229.5z"/>
	<path class="st8" d="M388.9,165.3C388.9,165.3,388.9,165.3,388.9,165.3C388.9,165.3,388.9,165.3,388.9,165.3z"/>
	<path class="st7" d="M119.2,228.2c1.3-3,2.7-6,4-9c0.9-2.1,1.9-4.1,2.8-6.2c0.3-0.6,0.6-0.8,1.3-0.8c1.2,0.1,2.5,0.1,3.7,0
		c0.9,0,1,0.3,0.8,1c-1.6,6.4-3.2,12.8-4.8,19.3c-0.4,1.7-0.9,3.5-1.3,5.2c-0.1,0.6-0.4,0.8-1,0.8c-0.9,0-1.9,0-2.9,0
		c1.6-6.3,3.1-12.5,4.7-18.9c-0.6,0.2-0.7,0.7-0.8,1.1c-2.4,5.6-4.8,11.2-7.2,16.8c-0.2,0.4-0.1,1-0.7,1c-0.8,0-1.6,0-2.4-0.1
		c-0.3,0-0.1-0.5-0.1-0.8c0.4-6,0.8-12,1.1-17.9c0-0.3,0.1-0.6-0.2-1.1c-0.4,1.6-0.7,3.1-1.1,4.6c-1.2,4.8-2.4,9.7-3.6,14.5
		c-0.2,0.7-0.5,0.8-1.1,0.8c-0.9-0.1-2.1,0.3-2.5-0.2c-0.5-0.5,0.2-1.6,0.4-2.4c1.9-7.5,3.7-15,5.6-22.5c0.2-0.9,0.5-1.3,1.5-1.2
		c1.2,0.1,2.3,0.1,3.5,0c0.8,0,1,0.2,0.9,0.9c-0.3,4.8-0.5,9.7-0.7,14.5c0,0.2,0,0.4,0,0.6C119.1,228.2,119.1,228.2,119.2,228.2z
		 M116.3,218.5c0.2-0.2,0.2-0.5,0-0.7C116.2,218,116.2,218.2,116.3,218.5z M126.4,219.1c0,0.1-0.1,0.2-0.1,0.3c0,0,0.1,0.1,0.2,0.1
		c0-0.1,0.1-0.2,0.1-0.3C126.6,219.2,126.4,219.1,126.4,219.1z M119,228.5c0,0.1-0.1,0.2,0,0.2c0,0.1,0.1,0.1,0.1,0c0,0,0-0.1,0-0.1
		C119.1,228.5,119,228.5,119,228.5z"/>
	<path class="st9" d="M241.6,227c1-4.8,2.2-9.3,3.2-13.7c0.2-0.9,0.5-1.1,1.4-1.1c2.7,0.1,2.7,0,2.1,2.7c-1.9,7.5-3.7,14.9-5.6,22.4
		c-0.2,0.9-0.5,1.3-1.5,1.3c-2.2-0.1-2.2,0-2.5-2.1c-0.6-4.8-1.5-9.5-1.9-14.5c-0.6,1-0.6,2.1-0.8,3.1c-1.1,4.2-2.1,8.4-3.1,12.7
		c-0.2,0.7-0.4,0.9-1.1,0.9c-0.9-0.1-1.9,0-3,0c1-4.2,2-8.2,3.1-12.3c1.1-4.3,2.2-8.7,3.2-13c0.2-0.8,0.5-1,1.3-1c3,0,3,0,3.4,3
		c0.5,3.7,1,7.4,1.5,11C241.4,226.4,241.4,226.5,241.6,227z"/>
	<path class="st9" d="M147.2,238.5c1.7-6.9,3.4-13.7,5.1-20.5c0.4-1.7,0.9-3.3,1.3-5c0.1-0.5,0.2-0.8,0.8-0.8
		c2.4,0.1,4.8-0.1,7.2,0.1c2.3,0.2,3.6,1.4,3.7,3.7c0.1,3.2-0.6,6.1-2.6,8.6c-0.4,0.5-0.8,1-1.3,1.2c-1.8,0.7-1.8,1.9-1.5,3.5
		c0.4,2.8,0.6,5.6,0.9,8.3c0.1,0.6,0,0.9-0.7,0.8c-0.9-0.1-1.8-0.1-2.8,0c-0.9,0.1-1.1-0.3-1.1-1.1c-0.2-2.9-0.5-5.9-0.7-8.8
		c0-0.4,0.1-0.9-0.6-0.9c-0.6,0-0.8,0.3-0.9,0.8c-0.7,3-1.5,6-2.2,9.1c-0.2,0.8-0.5,1-1.2,0.9C149.4,238.4,148.4,238.5,147.2,238.5z
		 M158.4,216.4c-1.4,0-1.5,0-1.6,0.6c-0.5,2-1,4-1.5,6c-0.1,0.3-0.2,0.5,0.3,0.6c1.9,0.5,3.9-0.5,4.6-2.3c0.3-0.6,0.4-1.3,0.6-1.9
		C161.2,217.1,160.7,216.4,158.4,216.4z"/>
	<path class="st9" d="M167.8,238.5c2.8-6.2,5.5-12.2,8.2-18.3c1.1-2.4,2.2-4.8,3.2-7.2c0.3-0.6,0.5-0.9,1.2-0.8c1.1,0.1,2.2,0,3.4,0
		c0.6,0,0.8,0.2,0.8,0.8c-0.2,5.1-0.4,10.3-0.7,15.4c-0.1,3-0.3,6.1-0.4,9.1c0,0.7-0.2,0.9-0.9,0.9c-3.3,0-3.3,0.1-3-3.2
		c0.2-2,0.2-2.1-1.8-2c-1.2,0-2.7-0.5-3.6,0.2c-0.8,0.6-1.2,2-1.5,3.2c-0.4,1.5-1.3,2.1-2.8,1.9
		C169.3,238.4,168.6,238.5,167.8,238.5z M181,217.4c-0.1,0-0.1,0-0.2,0c-1.5,3.5-2.9,7-4.4,10.6c-0.3,0.7-0.1,0.8,0.6,0.8
		c0.8,0,1.7,0,2.5,0c0.6,0,0.8-0.2,0.8-0.8C180.5,224.5,180.8,220.9,181,217.4z"/>
	<path class="st9" d="M206.5,220.6c-1.9,0-1.9,0-1.8-1.9c0.1-0.8,0.1-1.7-0.8-2.1c-0.9-0.5-1.7,0.1-2.4,0.7
		c-0.6,0.5-0.9,1.1-1.1,1.8c-1.1,4.2-2.1,8.4-3.1,12.7c-0.2,0.9-0.2,1.9,0.8,2.3c1.1,0.4,1.9,0,2.6-0.9c0.1-0.2,0.2-0.3,0.3-0.5
		c0.2-0.3,0.3-0.6,0.4-0.9c0.4-0.7,0.2-2,1-2.2c1.1-0.3,2.3-0.1,3.5-0.1c0.4,0,0.5,0.2,0.4,0.5c-0.8,2.9-1.8,5.7-4.3,7.7
		c-1.3,1-2.9,1.5-4.6,1.5c-2.7-0.1-4.4-1.7-4.5-4.4c-0.1-2.2,0.4-4.3,0.9-6.4c0.8-3.2,1.4-6.5,2.5-9.6c1.1-3.1,2.7-5.7,6-6.8
		c0.8-0.3,1.7-0.4,2.6-0.4c2.5,0.1,4,1.6,4.1,4.1c0.1,1.2-0.1,2.4-0.2,3.6c-0.1,1-0.5,1.6-1.6,1.3
		C207.1,220.6,206.8,220.6,206.5,220.6z"/>
	<path class="st7" d="M218.2,214.5c0.3-2.3,0.3-2.3,2.5-2.3c1.8,0,3.7,0,5.5,0c0.3,0,1.1-0.3,0.9,0.4c-0.2,0.6,0.1,1.9-0.9,1.8
		c-1.9-0.2-2,0.9-2.3,2.2c-1.5,6-3,12-4.5,18c-0.3,1.4-0.3,1.4,1.1,1.4c0.2,0,0.4,0,0.6,0c0.1,0.7-0.2,1.2-0.3,1.8
		c0,0.4-0.3,0.6-0.7,0.6c-2.6,0-5.3,0-8,0c0.1-0.5,0.2-0.8,0.2-1.1c0-1.1,0.6-1.4,1.6-1.3c0.8,0.2,1-0.3,1.1-1
		c1.6-6.4,3.1-12.9,4.8-19.3c0.3-1.2,0-1.5-1.1-1.3C218.6,214.5,218.4,214.5,218.2,214.5z"/>
	<path class="st9" d="M330.6,238.5c2-7.9,3.9-15.7,5.9-23.5c0.7-2.8,0.7-2.8,3.7-2.8c1.6,0,3.2,0,4.8,0.1c2.4,0.2,3.8,1.5,3.7,4
		c-0.1,4.2-1.1,8.1-5.2,10.3c-0.6,0.3-0.4,0.8-0.4,1.2c0.3,3.2,0.6,6.4,1,9.7c0.1,0.9-0.2,1.1-1,1c-1.1-0.1-2.5,0.3-3.3-0.2
		c-0.8-0.5-0.3-2-0.4-3.1c-0.2-2.2-0.4-4.5-0.6-6.7c0-0.4,0.1-0.8-0.6-0.8c-0.6,0-0.8,0.1-1,0.7c-0.7,3.1-1.5,6.1-2.3,9.2
		c-0.2,0.7-0.4,0.9-1.1,0.9C332.8,238.4,331.8,238.5,330.6,238.5z M341.7,216.4c-0.4,0.3-1.3-0.5-1.6,0.6c-0.5,2-1,4-1.5,6
		c-0.1,0.3-0.2,0.5,0.3,0.6c1.7,0.4,3.8-0.5,4.5-2.1c0.3-0.7,0.5-1.4,0.7-2.2C344.5,217.1,344,216.4,341.7,216.4z"/>
	<path class="st9" d="M326.2,215.3c-0.2,5-1.3,8.2-2,11.5c-0.6,2.4-1.1,4.9-2.3,7.2c-1.2,2.4-3,4.4-5.8,5c-3.9,0.9-6.5-1.3-6.1-5.3
		c0.5-5.3,2-10.4,3.6-15.5c0.5-1.6,1.4-3,2.5-4.2c1.1-1.2,2.4-2,4.1-2.3C324,211.2,326.3,213.2,326.2,215.3z M314.4,232.3
		c0,0.8,0,1.7,0.9,2c0.9,0.3,1.7-0.1,2.3-0.8c0.6-0.6,0.9-1.4,1.1-2.2c1-4.1,2-8.2,3-12.3c0.2-0.9,0.2-1.8-0.7-2.2
		c-0.9-0.4-1.8-0.1-2.5,0.6c-0.8,0.8-1.2,1.9-1.5,3c-0.7,3-1.5,6-2.2,8.9C314.7,230.3,314.4,231.3,314.4,232.3z"/>
	<path class="st7" d="M291.8,217.5c0.1-0.2,0.2-0.3,0.2-0.5c0.1-0.2,0.2-0.3,0.2-0.5c0.1-0.3,0.3-0.5,0.4-0.8
		c0.1-0.1,0.2-0.3,0.3-0.4c1.4-1.8,3.1-3.2,5.4-3.6c3.5-0.6,5.9,1.4,5.7,5c0,0.2,0,0.4-0.1,0.6c-0.6,4.3,0.2,3.1-4,3.3
		c-0.6,0-0.7-0.2-0.5-0.7c0.1-0.6,0.2-1.3,0.2-1.9c0-1.3-0.9-1.9-2.1-1.3c-1.3,0.6-1.9,1.8-2.2,3.1c-0.8,3.2-1.6,6.4-2.4,9.6
		c-0.2,0.9-0.4,1.8-0.5,2.7c-0.1,0.8-0.1,1.6,0.8,2c0.9,0.4,1.7,0.1,2.4-0.6c0.8-0.9,1.2-2,1.5-3.1c0.2-0.6,0.4-1,1.1-0.9
		c0.5,0.1,1.1,0,1.7,0c1.7,0,1.7,0,1.2,1.7c-0.8,2.5-1.8,4.8-3.9,6.5c-1.3,1-2.8,1.6-4.4,1.6c-2.9,0-4.6-1.6-4.8-4.5
		c-0.1-1.7,0.2-3.4,0.7-5.1C289.6,225.5,290.3,221.4,291.8,217.5z"/>
	<path class="st10" d="M357.4,220.2c0,0.2,0,0.4-0.2,0.5C357.2,220.5,357.3,220.4,357.4,220.2z"/>
	<path class="st7" d="M374.6,152.6c1.4-0.3,1.6,0.1,1.3,1.2c-0.8,3-1.5,5.9-2.2,8.9c-0.1,0.5-0.2,0.9-0.3,1.4c0,0.5,0,1.1,0.6,1.3
		c0.6,0.3,1.2,0,1.6-0.5c0.6-0.7,0.8-1.5,1-2.4c0.7-3,1.5-6,2.3-9c0.2-0.9,1.8-1.4,2.5-1c0.3,0.2,0.1,0.4,0,0.6
		c-0.9,3.6-1.8,7.3-2.8,10.9c-0.6,2-1.6,3.6-3.8,4.2c-2.7,0.7-4.6-0.9-4.2-3.7c0.6-3.9,1.9-7.7,2.7-11.5
		C373.7,152.1,374.4,152.7,374.6,152.6z"/>
	<path class="st7" d="M360.9,159c1.1-1.6,2.4-3.1,3.3-4.8c0.9-1.6,2.1-1.9,3.9-1.5c-1.4,2-2.8,4.1-4.3,6c-0.6,0.8-0.7,1.5-0.5,2.4
		c0.5,2,0.9,4,1.4,5.9c0.2,0.7,0.2,1-0.7,1c-2.1,0-2.1,0-2.5-2c-0.4-1.8-0.7-3.6-1.4-5.4c-0.4,1.8-0.9,3.6-1.3,5.4
		c-0.6,2.2-0.6,2.2-3,1.9c1.1-4.3,2.1-8.5,3.2-12.7c0.2-0.6,0.3-1.2,0.5-1.9c0.1-0.5,0.3-0.7,0.9-0.7c1.9-0.1,1.9-0.1,1.4,1.8
		c-0.4,1.5-0.7,2.9-1.1,4.4c-0.1,0.2-0.2,0.4,0,0.6C360.7,159.2,360.8,159.1,360.9,159z"/>
	<path class="st0" d="M116.3,218.5c-0.1-0.3-0.1-0.5,0-0.7C116.5,218,116.5,218.2,116.3,218.5z"/>
	<path class="st0" d="M126.4,219.1c0.1,0,0.2,0.1,0.2,0.1c0,0.1-0.1,0.2-0.1,0.3c-0.1,0-0.2-0.1-0.2-0.1
		C126.3,219.3,126.3,219.2,126.4,219.1z"/>
	<path class="st0" d="M119,228.5c0,0,0.1,0.1,0.1,0.1c0,0,0,0.1,0,0.1c-0.1,0.1-0.1,0.1-0.1,0C118.9,228.6,119,228.6,119,228.5z"/>
	<path class="st8" d="M158.4,216.4c2.3,0,2.8,0.7,2.3,3c-0.1,0.7-0.3,1.3-0.6,1.9c-0.7,1.8-2.7,2.8-4.6,2.3
		c-0.4-0.1-0.3-0.3-0.3-0.6c0.5-2,1-4,1.5-6C156.9,216.3,156.9,216.3,158.4,216.4z"/>
	<path class="st8" d="M181,217.4c-0.3,3.5-0.5,7.1-0.8,10.6c0,0.5-0.2,0.8-0.8,0.8c-0.8,0-1.7,0-2.5,0c-0.7,0-0.9-0.1-0.6-0.8
		c1.5-3.5,3-7,4.4-10.6C180.9,217.4,180.9,217.4,181,217.4z"/>
	<path class="st8" d="M341.7,216.4c2.4,0,2.9,0.7,2.4,3c-0.2,0.7-0.3,1.5-0.7,2.2c-0.8,1.6-2.8,2.5-4.5,2.1
		c-0.4-0.1-0.3-0.3-0.3-0.6c0.5-2,1-4,1.5-6C340.4,215.8,341.2,216.6,341.7,216.4z"/>
	<path class="st4" d="M314.4,232.3c0.1-1,0.3-2,0.6-3c0.7-3,1.5-6,2.2-8.9c0.3-1.1,0.6-2.1,1.5-3c0.7-0.7,1.6-1,2.5-0.6
		c0.9,0.4,0.9,1.3,0.7,2.2c-1,4.1-2,8.2-3,12.3c-0.2,0.8-0.6,1.6-1.1,2.2c-0.6,0.7-1.4,1.1-2.3,0.8
		C314.3,234,314.4,233.1,314.4,232.3z"/>
	<path class="st4" d="M360.9,159c-0.1,0.1-0.2,0.2-0.3,0.3c-0.2-0.2-0.1-0.4,0-0.6C360.8,158.8,360.9,158.9,360.9,159z"/>
</g>
</svg>
